<svg width="50" height="50" viewBox="0 0 50 50" fill="none" xmlns="http://www.w3.org/2000/svg">
<path d="M40 21.4767L38.4441 19.9208L34.4827 23.8823L30.5213 19.9208L28.9655 21.4767L32.9268 25.4381L28.9655 29.3995L30.5213 30.9554L34.4827 26.994L38.4441 30.9554L40 29.3995L36.0386 25.4381L40 21.4767Z" fill="black"/>
<path d="M25.6552 40.8864C25.5092 40.8858 25.3647 40.8562 25.2302 40.7994C25.0958 40.7425 24.9739 40.6597 24.8717 40.5554L16.4635 32.0588H9.10345C8.8108 32.0588 8.53013 31.9426 8.32319 31.7356C8.11626 31.5287 8 31.248 8 30.9554V19.9208C8 19.6282 8.11626 19.3476 8.32319 19.1406C8.53013 18.9337 8.8108 18.8174 9.10345 18.8174H16.4635L24.8717 10.3209C25.0785 10.1154 25.3582 10 25.6497 10C25.9412 10 26.2209 10.1154 26.4276 10.3209C26.6355 10.5246 26.7544 10.8022 26.7586 11.0933V39.7829C26.7586 40.0756 26.6424 40.3563 26.4354 40.5632C26.2285 40.7701 25.9478 40.8864 25.6552 40.8864ZM10.2069 29.8519H16.8276C17.1493 29.8498 17.4601 29.9678 17.6993 30.1829L24.5517 37.1016V13.7747L17.6993 20.6933C17.4601 20.9083 17.1493 21.0264 16.8276 21.0243H10.2069V29.8519Z" fill="black"/>
</svg>
