<svg width="50" height="50" viewBox="0 0 50 50" fill="none" xmlns="http://www.w3.org/2000/svg">
<path d="M33.7486 17.6915C33.4142 15.6062 32.3459 13.709 30.7363 12.3418C29.1267 10.9746 27.0817 10.2272 24.9698 10.2345C22.8579 10.2418 20.8181 11.0031 19.2179 12.3814C17.6177 13.7597 16.5625 15.6642 16.2424 17.7517C14.7487 18.0128 13.3687 18.7189 12.283 19.7774C11.6355 20.4044 11.1206 21.1549 10.7687 21.9846C10.4168 22.8143 10.2351 23.7062 10.2344 24.6074C10.2344 26.522 11.0212 28.3457 12.4498 29.7427C12.5663 29.8565 12.6862 29.9662 12.8094 30.0716L13.5063 27.981C12.7009 27.0487 12.2031 25.8623 12.2031 24.6074C12.2031 22.0011 14.401 19.8077 17.2068 19.6136L18.0715 19.5539L18.1215 18.6885C18.2249 16.9355 18.9936 15.288 20.2707 14.0827C21.5479 12.8774 23.237 12.2052 24.9932 12.2035C26.7492 12.2018 28.4397 12.8706 29.7193 14.0734C30.9988 15.2762 31.7708 16.9222 31.8775 18.675L31.9323 19.591L32.8498 19.6005C35.7163 19.6305 37.7969 21.7362 37.7969 24.6074C37.7969 26.6471 36.7691 28.3837 35.2227 29.277L34.415 31.6999C35.7135 31.3845 36.8896 30.6918 37.795 29.7091C39.0658 28.3431 39.7656 26.5313 39.7656 24.6074C39.7656 20.9706 37.2345 18.134 33.7486 17.6915Z" fill="black"/>
<path d="M17.0037 39.7656H19.0825L22.9791 28.2691L21.1146 27.6371L17.0037 39.7656Z" fill="black"/>
<path d="M27.3397 39.7656H29.4184L33.3151 28.2691L31.4505 27.6371L27.3397 39.7656Z" fill="black"/>
<path d="M27.0986 24.6945L23.1408 36.8125H25.2119L28.97 25.3056L27.0986 24.6945Z" fill="black"/>
<path d="M17.1737 24.6945L13.2159 36.8125H15.287L19.0451 25.3056L17.1737 24.6945Z" fill="black"/>
</svg>
