<svg width="50" height="50" viewBox="0 0 50 50" fill="none" xmlns="http://www.w3.org/2000/svg">
<g clip-path="url(#clip0)">
<path d="M33.7812 12.0625C32.4137 12.0625 31.1022 12.6058 30.1352 13.5727C29.1682 14.5397 28.625 15.8512 28.625 17.2188C28.625 17.4923 28.5163 17.7546 28.323 17.948C28.1295 18.1413 27.8673 18.25 27.5937 18.25C27.3202 18.25 27.058 18.1413 26.8645 17.948C26.6712 17.7546 26.5625 17.4923 26.5625 17.2188C26.5625 15.791 26.9858 14.3953 27.7791 13.2082C28.5723 12.0211 29.6997 11.0959 31.0188 10.5495C32.3378 10.0031 33.7893 9.86017 35.1896 10.1387C36.5899 10.4172 37.8761 11.1048 38.8856 12.1143C39.8952 13.1239 40.5828 14.4101 40.8613 15.8104C41.1399 17.2107 40.9969 18.6622 40.4505 19.9812C39.9042 21.3003 38.9789 22.4277 37.7918 23.2209C36.6046 24.0142 35.209 24.4375 33.7812 24.4375H9.03125C8.75775 24.4375 8.49544 24.3288 8.30205 24.1355C8.10865 23.942 8 23.6798 8 23.4063C8 23.1327 8.10865 22.8705 8.30205 22.677C8.49544 22.4837 8.75775 22.375 9.03125 22.375H33.7812C35.1488 22.375 36.4603 21.8318 37.4273 20.8648C38.3943 19.8978 38.9375 18.5863 38.9375 17.2188C38.9375 15.8512 38.3943 14.5397 37.4273 13.5727C36.4603 12.6058 35.1488 12.0625 33.7812 12.0625ZM19.3437 14.125C18.7967 14.125 18.2721 14.3423 17.8853 14.7291C17.4986 15.1159 17.2812 15.6405 17.2812 16.1875C17.2812 16.461 17.1726 16.7233 16.9792 16.9167C16.7858 17.1101 16.5235 17.2188 16.25 17.2188C15.9765 17.2188 15.7142 17.1101 15.5208 16.9167C15.3274 16.7233 15.2187 16.461 15.2187 16.1875C15.2187 15.3717 15.4607 14.5741 15.9139 13.8958C16.3672 13.2174 17.0114 12.6887 17.7652 12.3765C18.5189 12.0643 19.3483 11.9826 20.1485 12.1418C20.9486 12.3009 21.6837 12.6938 22.2606 13.2707C22.8374 13.8476 23.2303 14.5826 23.3895 15.3828C23.5487 16.1829 23.4669 17.0123 23.1548 17.7661C22.8425 18.5198 22.3138 19.164 21.6354 19.6173C20.9571 20.0706 20.1596 20.3125 19.3437 20.3125H9.03125C8.75775 20.3125 8.49544 20.2038 8.30205 20.0105C8.10865 19.817 8 19.5548 8 19.2813C8 19.0077 8.10865 18.7455 8.30205 18.552C8.49544 18.3587 8.75775 18.25 9.03125 18.25H19.3437C19.8908 18.25 20.4154 18.0327 20.8022 17.6459C21.1889 17.2591 21.4062 16.7345 21.4062 16.1875C21.4062 15.6405 21.1889 15.1159 20.8022 14.7291C20.4154 14.3423 19.8908 14.125 19.3437 14.125ZM8 27.5313C8 27.2577 8.10865 26.9955 8.30205 26.802C8.49544 26.6087 8.75775 26.5 9.03125 26.5H29.7428C30.9667 26.5 32.1629 26.8629 33.1805 27.5428C34.198 28.2227 34.9911 29.189 35.4594 30.3197C35.9277 31.4502 36.0502 32.6943 35.8115 33.8946C35.5728 35.0949 34.9835 36.1974 34.1181 37.0628C33.2528 37.9281 32.1503 38.5173 30.95 38.7561C29.7497 38.9948 28.5056 38.8723 27.375 38.404C26.2444 37.9357 25.278 37.1427 24.5981 36.1251C23.9183 35.1076 23.5553 33.9113 23.5553 32.6875C23.5553 32.414 23.664 32.1517 23.8574 31.9583C24.0508 31.7649 24.3132 31.6563 24.5866 31.6563C24.8601 31.6563 25.1224 31.7649 25.3158 31.9583C25.5092 32.1517 25.6178 32.414 25.6178 32.6875C25.6178 33.5034 25.8598 34.3009 26.313 34.9792C26.7663 35.6576 27.4105 36.1863 28.1643 36.4985C28.9181 36.8107 29.7475 36.8924 30.5476 36.7332C31.3478 36.5741 32.0828 36.1812 32.6597 35.6043C33.2366 35.0274 33.6294 34.2924 33.7886 33.4922C33.9477 32.6921 33.8661 31.8627 33.5539 31.1089C33.2417 30.3552 32.7129 29.711 32.0346 29.2577C31.3562 28.8044 30.5587 28.5625 29.7428 28.5625H9.03125C8.75775 28.5625 8.49544 28.4538 8.30205 28.2605C8.10865 28.067 8 27.8048 8 27.5313Z" fill="black"/>
</g>
<defs>
<clipPath id="clip0">
<rect width="33" height="29.0714" fill="white" transform="translate(8 10)"/>
</clipPath>
</defs>
</svg>
